<svg width="32" height="32" viewBox="0 0 32 32" fill="none" xmlns="http://www.w3.org/2000/svg">
<g id="Group">
<path id="Vector" d="M18.6999 7.11111C18.6999 10.8132 16.0101 13.7222 12.7999 13.7222C9.58967 13.7222 6.8999 10.8132 6.8999 7.11111C6.8999 3.40904 9.58967 0.5 12.7999 0.5C16.0101 0.5 18.6999 3.40904 18.6999 7.11111Z" fill="#00B4D8" stroke="white"/>
<path id="Vector_2" d="M0.5 24.8888C0.5 23.8446 0.979926 22.9039 1.82586 22.0625C2.67631 21.2166 3.87469 20.4956 5.23777 19.9156C7.70191 18.8671 10.6025 18.3215 12.6921 18.288C12.2862 19.8689 11.6126 24.0061 14.2733 27.9444H0.5V24.8888Z" fill="#00B4D8" stroke="white"/>
<path id="Vector_3" d="M27.4497 24.6837L27.2788 24.995L27.5164 25.2589L31.3273 29.4933L29.744 31.2525L26.0036 27.0966L25.7159 26.7769L25.3568 27.0136C24.4813 27.5907 23.4715 27.9444 22.4 27.9444C19.1884 27.9444 16.5 25.0369 16.5 21.3333C16.5 17.6297 19.1884 14.7222 22.4 14.7222C25.6116 14.7222 28.3 17.6297 28.3 21.3333C28.3 22.5631 27.986 23.7071 27.4497 24.6837ZM18.7 21.3333C18.7 23.5141 20.3156 25.3888 22.4 25.3888C24.4844 25.3888 26.1 23.5141 26.1 21.3333C26.1 19.1524 24.4844 17.2777 22.4 17.2777C20.3156 17.2777 18.7 19.1524 18.7 21.3333Z" fill="#00B4D8" stroke="white"/>
</g>
</svg>
