<svg width="32" height="32" viewBox="0 0 32 32" fill="none" xmlns="http://www.w3.org/2000/svg">
<g id="help-circle">
<g id="Group">
<path id="Vector" d="M15.9998 29.3334C23.3636 29.3334 29.3332 23.3639 29.3332 16.0001C29.3332 8.63628 23.3636 2.66675 15.9998 2.66675C8.63604 2.66675 2.6665 8.63628 2.6665 16.0001C2.6665 23.3639 8.63604 29.3334 15.9998 29.3334Z" stroke="#737791" stroke-width="2" stroke-linecap="round" stroke-linejoin="round"/>
<path id="Vector_2" d="M12.1196 12C12.4331 11.1089 13.0518 10.3575 13.8662 9.87887C14.6806 9.40024 15.6382 9.22528 16.5692 9.38498C17.5002 9.54467 18.3447 10.0287 18.9531 10.7514C19.5614 11.4741 19.8944 12.3887 19.893 13.3334C19.893 16 15.893 17.3334 15.893 17.3334" stroke="#737791" stroke-width="2" stroke-linecap="round" stroke-linejoin="round"/>
<path id="Vector_3" d="M16 22.6667H16.0133" stroke="#737791" stroke-width="2" stroke-linecap="round" stroke-linejoin="round"/>
</g>
</g>
</svg>
