<svg width="27" height="28" viewBox="0 0 27 28" fill="none" xmlns="http://www.w3.org/2000/svg">
<path id="Vector" d="M24.0723 3.71018C23.4614 3.00949 22.7361 2.45365 21.9378 2.07442C21.1396 1.69519 20.2839 1.5 19.4199 1.5C18.5558 1.5 17.7001 1.69519 16.9019 2.07442C16.1036 2.45365 15.3783 3.00949 14.7674 3.71018L13.4997 5.16368L12.2319 3.71018C10.998 2.2955 9.3245 1.50073 7.57951 1.50073C5.83452 1.50073 4.16099 2.2955 2.92709 3.71018C1.6932 5.12487 1 7.04359 1 9.04426C1 11.0449 1.6932 12.9637 2.92709 14.3783L4.19485 15.8318L13.4997 26.5L22.8045 15.8318L24.0723 14.3783C24.6834 13.678 25.1682 12.8464 25.499 11.9312C25.8298 11.0159 26 10.035 26 9.04426C26 8.05356 25.8298 7.07258 25.499 6.15734C25.1682 5.2421 24.6834 4.41054 24.0723 3.71018V3.71018Z" stroke="#737791" stroke-width="2" stroke-linecap="round" stroke-linejoin="round"/>
</svg>
